<?xml version="1.0" encoding="utf-8"?>
<!-- Generator: Adobe Illustrator 26.0.3, SVG Export Plug-In . SVG Version: 6.00 Build 0)  -->
<svg version="1.1" id="Layer_1" xmlns="http://www.w3.org/2000/svg" xmlns:xlink="http://www.w3.org/1999/xlink" x="0px" y="0px"
	 viewBox="0 0 512 512" style="enable-background:new 0 0 512 512;" xml:space="preserve">
<path d="M478.1,495.2l-38.9-370.6c-0.8-7.8-7.4-13.6-15.2-13.6h-73.1V94.3c0-52-42.3-94.3-94.3-94.3s-94.3,42.3-94.3,94.3V111H89.2
	c-7.8,0-14.3,5.9-15.2,13.6L35.1,495.2c-0.4,4.3,0.9,8.6,3.8,11.8c2.9,3.2,7,5,11.3,5h412.7c4.3,0,8.4-1.8,11.3-5
	S478.5,499.5,478.1,495.2z M192.8,94.3c0-35.2,28.6-63.8,63.8-63.8s63.8,28.6,63.8,63.8V111H192.8V94.3z M67.2,481.5l35.7-340.1
	h59.4h30.5h127.6h30.5h59.4L446,481.5H67.2z"/>
</svg>
