<?xml version="1.0" encoding="utf-8"?>
<!-- Generator: Adobe Illustrator 26.0.3, SVG Export Plug-In . SVG Version: 6.00 Build 0)  -->
<svg version="1.1" id="Icons" xmlns="http://www.w3.org/2000/svg" xmlns:xlink="http://www.w3.org/1999/xlink" x="0px" y="0px"
	 viewBox="0 0 512 512" style="enable-background:new 0 0 512 512;" xml:space="preserve">
<style type="text/css">
	.st0{fill:#020202;}
</style>
<path class="st0" d="M364,32c-40.9,0-80,17-108,46.9c-55.9-59.6-149.5-62.7-209.2-6.8C17,100,0,139.1,0,180
	c0,147.4,237.7,292,248,297.7c5.1,3,11.4,3,16.5,0C274.3,472,512,327.4,512,180C511.9,98.3,445.7,32.1,364,32z M256,445.1
	C214.6,418.7,32,295.4,32,180c0.1-64.1,52-116,116.1-115.9c37.7,0,73.1,18.4,94.8,49.3c5.1,7.2,15.1,9,22.3,3.9
	c1.5-1.1,2.8-2.4,3.9-3.9C305.8,60.9,378.2,48.2,430.6,85c31,21.7,49.4,57.2,49.4,95C480,295.3,297.4,418.6,256,445.1z"/>
</svg>
