<?xml version="1.0" encoding="utf-8"?>
<!-- Generator: Adobe Illustrator 26.0.3, SVG Export Plug-In . SVG Version: 6.00 Build 0)  -->
<svg version="1.1" id="Layer_1" xmlns="http://www.w3.org/2000/svg" xmlns:xlink="http://www.w3.org/1999/xlink" x="0px" y="0px"
	 viewBox="0 0 45 45" style="enable-background:new 0 0 45 45;" xml:space="preserve">
<style type="text/css">
	.st0{fill:none;stroke:#222221;stroke-width:1.5;stroke-miterlimit:10;}
	.st1{fill:#222221;}
</style>
<g id="XMLID_2094_">
	<path id="XMLID_2101_" class="st0" d="M22.1,42.7L22.1,42.7c-10.5,0-19-8.5-19-19v0c0-10.5,8.5-19,19-19h0c10.5,0,19,8.5,19,19v0
		C41.2,34.1,32.6,42.7,22.1,42.7z"/>
	<g id="XMLID_2095_">
		<g id="XMLID_2097_">
			<rect id="XMLID_2100_" x="13.5" y="19.4" class="st1" width="3.9" height="12.7"/>
			<path id="XMLID_2098_" class="st1" d="M15.4,17.7c1.3,0,2.3-1.1,2.3-2.3s-1-2.3-2.3-2.3c-1.3,0-2.3,1.1-2.3,2.3
				S14.2,17.7,15.4,17.7z"/>
		</g>
		<path id="XMLID_2096_" class="st1" d="M23.7,25.4c0-1.8,0.8-2.9,2.4-2.9c1.4,0,2.1,1,2.1,2.9c0,1.8,0,6.7,0,6.7h3.9
			c0,0,0-4.6,0-8.1c0-3.4-1.9-5.1-4.6-5.1c-2.7,0-3.8,2.1-3.8,2.1v-1.7H20v12.7h3.8C23.7,32.1,23.7,27.4,23.7,25.4z"/>
	</g>
</g>
</svg>
