<?xml version="1.0" encoding="utf-8"?>
<!-- Generator: Adobe Illustrator 26.0.3, SVG Export Plug-In . SVG Version: 6.00 Build 0)  -->
<svg version="1.1" id="Layer_1" xmlns="http://www.w3.org/2000/svg" xmlns:xlink="http://www.w3.org/1999/xlink" x="0px" y="0px"
	 viewBox="0 0 339 205" style="enable-background:new 0 0 339 205;" xml:space="preserve">
<style type="text/css">
	.st0{fill-rule:evenodd;clip-rule:evenodd;}
</style>
<path class="st0" d="M115.7,96.3c41.1,2.7,71.4-5.8,81.5-26.5c6.6-13.4,3.9-30.4-6.3-49l-8.9,3.7c4.8,14,5,26.9-0.3,37.8
	c-9.5,19.4-34.9,29-69.4,29.3L115.7,96.3"/>
<path class="st0" d="M218.5,15.3C154,24.9,108.1,48.9,108.1,76.8c0,28,45.9,51.9,110.4,61.5c-57.2-10.2-97.4-34-97.4-61.5
	C121,49.3,161.3,25.5,218.5,15.3"/>
<path d="M28.3,158.5h14.2c0-0.3,0-0.7,0-1.2s0-0.8,0-0.9c0-4-0.6-7.1-1.7-9.1c-1.1-2.1-2.7-3.1-4.9-3.1c-2.5,0-4.3,1.2-5.7,3.5
	c-1.4,2.4-2,5.7-2,10v0.8 M28.3,162.9c0,5.1,1.2,9.2,3.5,12.2s5.4,4.5,9.3,4.5c1.9,0,3.8-0.3,5.5-1c1.8-0.7,3.5-1.7,5.1-3.2l0.8,0.7
	l-1.8,5c-1.7,1.3-3.8,2.3-6.1,3c-2.4,0.7-4.9,1-7.6,1c-6.5,0-11.6-2-15.3-6.1s-5.5-9.7-5.5-16.9c0-6.5,1.8-11.7,5.5-15.7
	s8.5-6,14.6-6c5.7,0,10.1,1.7,13.2,5.1c3.1,3.4,4.6,8.3,4.6,14.6c0,0.7,0,1.3,0,1.7s0,0.8-0.1,1.1L28.3,162.9z"/>
<path d="M94.5,141.5c-0.2,3.6-0.3,7.1-0.4,10.6s-0.1,7.1-0.1,10.5c0,3.5,0,7.1,0.1,10.7c0.1,3.6,0.2,7.1,0.4,10.7
	c-1.1-0.1-2.1-0.3-3-0.3c-0.9-0.1-1.8-0.1-2.7-0.1c-0.9,0-1.8,0-2.7,0.1c-0.9,0.1-2,0.2-3,0.3v-6c-1.8,2.4-3.7,4.1-5.8,5.2
	c-2.1,1.1-4.4,1.7-7,1.7c-4.3,0-7.4-1.3-9.4-3.9c-2-2.6-3-6.7-3-12.4v-4.9c0-3.3,0-6.9-0.1-10.6c-0.1-3.7-0.2-7.6-0.4-11.7
	c0.9,0.1,1.9,0.2,2.9,0.3s2.1,0.1,3.3,0.1s2.3,0,3.3-0.1s2-0.1,2.9-0.3c-0.2,3.7-0.4,7.3-0.5,10.6c-0.1,3.4-0.2,6.5-0.2,9.4
	c0,6.6,0.5,10.9,1.4,12.9c1,2,2.7,3,5.2,3s4.2-1,5.2-3s1.5-5.6,1.5-10.8v-14.1c0-0.9,0-2-0.1-3.4c0-1.3-0.1-2.9-0.2-4.6
	c0.9,0.1,1.9,0.2,2.9,0.3s2,0.1,3.2,0.1c1.1,0,2.2,0,3.2-0.1C92.7,141.7,93.7,141.6,94.5,141.5"/>
<path d="M101.2,184c0.2-2.9,0.3-6.1,0.4-9.6s0.1-7.4,0.1-11.6c0-5.3,0-9.5-0.1-12.7s-0.2-6-0.4-8.5c0.9,0.1,1.8,0.2,2.7,0.3
	c1,0.1,2,0.1,3.1,0.1s2.1,0,3.1-0.1c0.9-0.1,1.8-0.1,2.7-0.3c-0.1,2.7-0.2,5-0.3,6.8c-0.1,1.8-0.1,3.3-0.1,4.5h0.4
	c1-4.1,2.6-7.2,4.8-9.3c2.2-2.1,4.9-3.2,8.1-3.2h0.4c-0.2,1.1-0.3,2.1-0.4,3.2c-0.1,1.1-0.1,2.1-0.1,3.2c0,1.1,0,2.2,0.1,3.3
	s0.2,2.2,0.4,3.3c-1.1-0.4-2.2-0.8-3.1-1s-1.7-0.3-2.4-0.3c-2.8,0-4.8,1-6,3s-1.9,5.2-1.9,9.6c0,3.4,0.1,6.7,0.2,10
	c0.1,3.2,0.3,6.3,0.6,9.3c-1.1-0.1-2.2-0.2-3.2-0.3s-2-0.1-3-0.1c-0.9,0-1.9,0-2.9,0.1C103.5,183.7,102.4,183.8,101.2,184"/>
<path d="M138.8,162.8c0,6.7,0.7,11.5,2,14.2s3.5,4.1,6.6,4.1s5.4-1.4,6.7-4.1c1.3-2.8,2-7.5,2-14.2s-0.7-11.5-2-14.3
	s-3.6-4.2-6.7-4.2c-3.1,0-5.3,1.4-6.6,4.1C139.5,151.2,138.8,156,138.8,162.8 M126.5,162.8c0-7.1,1.9-12.6,5.5-16.5
	c3.7-3.9,8.8-5.9,15.4-5.9c6.7,0,11.9,1.9,15.5,5.8c3.6,3.9,5.4,9.4,5.4,16.6c0,7-1.8,12.5-5.5,16.4s-8.8,5.9-15.5,5.9
	c-6.6,0-11.8-2-15.4-5.9C128.3,175.3,126.5,169.8,126.5,162.8z"/>
<rect x="172.1" y="157.4" width="20.6" height="9.5"/>
<path d="M217.7,160.6c-3.9,0.8-6.6,2.1-8.4,3.8c-1.7,1.7-2.6,4.1-2.6,7.1c0,2.5,0.4,4.5,1.3,5.7c0.9,1.3,2.2,1.9,3.9,1.9
	c1.9,0,3.3-0.7,4.3-2.1c1-1.4,1.5-3.5,1.5-6.1V160.6 M218,178.4c-1.2,2.1-2.8,3.8-4.7,4.9c-2,1.2-4.1,1.7-6.6,1.7
	c-3.5,0-6.3-1.1-8.3-3.3s-3-5.2-3-9.1c0-2.8,0.7-5.1,2.1-6.9c1.4-1.8,3.6-3.3,6.7-4.3c1-0.3,2.4-0.8,4.2-1.4
	c4.3-1.4,7.3-2.7,8.9-3.8c0-0.2,0.1-0.4,0.1-0.6c0-0.2,0-0.5,0-0.9c0-2.7-0.7-4.8-2.2-6.4c-1.4-1.6-3.4-2.4-5.8-2.4
	c-1.9,0-3.6,0.6-5.1,1.7c-1.5,1.1-3,2.9-4.3,5.2c-0.4-1.4-0.8-2.5-1-3.3c-0.3-0.8-0.5-1.6-0.8-2.3c2.5-2.3,4.9-4,7.3-5.1
	c2.4-1.1,4.9-1.7,7.6-1.7c5,0,8.8,1.2,11.5,3.7s4,6,4,10.5v0.4l-0.3,15.5v1.7c0,3.6,0.4,5.9,1.1,7c0.8,1,2.2,1.5,4.4,1.5h0.3v2.2
	c-1.4,0.6-2.9,1.1-4.4,1.5c-1.5,0.3-3,0.5-4.4,0.5c-2,0-3.7-0.5-4.9-1.6C219.3,182.1,218.5,180.5,218,178.4z"/>
<path d="M236.2,171.8h1.2c0.9,2.9,2.3,5.2,4.2,6.8s4.1,2.4,6.6,2.4c2,0,3.5-0.5,4.6-1.6s1.6-2.5,1.6-4.4c0-2.4-2.7-4.8-8.1-7.2
	c-0.7-0.3-1.3-0.6-1.7-0.7c-3.8-1.7-6.5-3.5-7.9-5.3c-1.5-1.8-2.2-4.1-2.2-6.9c0-4.3,1.4-7.9,4.2-10.5c2.8-2.7,6.5-4,11.1-4
	c2.1,0,4.2,0.3,6.2,0.9c2,0.6,3.9,1.6,5.8,2.8c-0.6,1.4-1.1,2.7-1.5,4.1c-0.4,1.4-0.7,2.8-1,4.3h-0.8c-1.2-2.7-2.7-4.8-4.3-6.1
	c-1.7-1.4-3.5-2-5.6-2c-1.7,0-3.2,0.5-4.3,1.5s-1.7,2.4-1.7,4c0,1.3,0.4,2.4,1.2,3.3c0.8,0.9,2.8,2,5.9,3.2
	c6.1,2.5,9.9,4.7,11.4,6.5s2.3,4.2,2.3,7.1c0,4.5-1.5,8.2-4.4,10.9c-2.9,2.8-6.8,4.2-11.5,4.2c-2.6,0-4.9-0.3-6.9-0.8
	c-2-0.6-3.8-1.4-5.5-2.6c0.1-1.1,0.4-3.8,0.9-8.3L236.2,171.8"/>
<path d="M269.2,125.5c0-1.9,0.6-3.5,1.8-4.8c1.2-1.3,2.7-2,4.5-2c1.7,0,3.2,0.7,4.4,2c1.2,1.3,1.8,2.9,1.8,4.8s-0.6,3.5-1.8,4.8
	s-2.7,1.9-4.5,1.9s-3.3-0.6-4.5-1.9C269.8,129,269.2,127.4,269.2,125.5 M269.2,184c0.2-4.5,0.3-8.5,0.4-11.8s0.1-6.5,0.1-9.4
	c0-3.3-0.1-6.8-0.2-10.3s-0.2-7.2-0.4-11c1,0.1,2,0.1,3,0.2c1,0,2.1,0.1,3.2,0.1s2.2,0,3.2-0.1c1,0,2-0.1,3-0.2
	c-0.2,3.9-0.3,7.5-0.4,11s-0.1,6.9-0.1,10.3c0,2.9,0,6.1,0.1,9.4c0.1,3.4,0.2,7.3,0.4,11.8c-1.1-0.1-2.1-0.3-3.1-0.3
	c-1-0.1-2-0.1-3.1-0.1c-1,0-2,0-3,0.1C271.4,183.7,270.3,183.8,269.2,184z"/>
<path d="M308.3,160.6c-3.9,0.8-6.6,2.1-8.4,3.8c-1.7,1.7-2.6,4.1-2.6,7.1c0,2.5,0.4,4.5,1.3,5.7c0.9,1.3,2.2,1.9,3.9,1.9
	c1.9,0,3.3-0.7,4.3-2.1c1-1.4,1.5-3.5,1.5-6.1L308.3,160.6 M308.7,178.4c-1.2,2.1-2.8,3.8-4.7,4.9c-2,1.2-4.1,1.7-6.6,1.7
	c-3.5,0-6.3-1.1-8.3-3.3s-3-5.2-3-9.1c0-2.8,0.7-5.1,2.1-6.9c1.4-1.8,3.6-3.3,6.7-4.3c1-0.3,2.4-0.8,4.2-1.4
	c4.3-1.4,7.3-2.7,8.9-3.8c0-0.2,0.1-0.4,0.1-0.6c0-0.2,0-0.5,0-0.9c0-2.7-0.7-4.8-2.2-6.4c-1.4-1.6-3.4-2.4-5.8-2.4
	c-1.9,0-3.6,0.6-5.1,1.7c-1.5,1.1-3,2.9-4.3,5.2c-0.4-1.4-0.8-2.5-1-3.3c-0.3-0.8-0.5-1.6-0.8-2.3c2.5-2.3,4.9-4,7.3-5.1
	s4.9-1.7,7.6-1.7c5,0,8.8,1.2,11.5,3.7s4,6,4,10.5v0.4l-0.3,15.5v1.7c0,3.6,0.4,5.9,1.1,7c0.8,1,2.2,1.5,4.4,1.5h0.3v2.2
	c-1.4,0.6-2.9,1.1-4.4,1.5c-1.5,0.3-3,0.5-4.4,0.5c-2,0-3.7-0.5-4.9-1.6C310,182.1,309.1,180.5,308.7,178.4z"/>
</svg>
