<?xml version="1.0" encoding="utf-8"?>
<!-- Generator: Adobe Illustrator 26.0.3, SVG Export Plug-In . SVG Version: 6.00 Build 0)  -->
<svg version="1.1" id="Layer_1" xmlns="http://www.w3.org/2000/svg" xmlns:xlink="http://www.w3.org/1999/xlink" x="0px" y="0px"
	 viewBox="0 0 380 310" style="enable-background:new 0 0 380 310;" xml:space="preserve">
<style type="text/css">
	.st0{fill-rule:evenodd;clip-rule:evenodd;fill:#AFCA0B;}
	.st1{fill-rule:evenodd;clip-rule:evenodd;fill:#003B1A;}
	.st2{fill:#003B1A;}
	.st3{fill-rule:evenodd;clip-rule:evenodd;}
</style>
<path class="st0" d="M128.5,112.9c43.8,2.9,76-6.2,86.7-28.2c7-14.3,4.1-32.3-6.7-52.2l-9.4,3.9c5.1,15,5.3,28.7-0.3,40.2
	c-10.1,20.7-37.2,30.9-73.9,31.2L128.5,112.9"/>
<path class="st1" d="M269.1,235c-0.7,0.7-1.5,1.3-2.3,1.7c-0.8,0.4-1.7,0.6-2.7,0.6c-1.4,0-2.6-0.4-3.4-1.1c-0.8-0.7-1.2-1.7-1.2-3
	c0-1.2,0.3-2.1,0.9-2.8c0.6-0.7,1.6-1.2,2.9-1.5c0.6-0.1,1.3-0.3,2.3-0.4c2-0.4,3.1-0.7,3.5-1.1v-0.7c0-1.5-0.3-2.6-0.9-3.3
	c-0.6-0.7-1.5-1-2.8-1c-0.9,0-1.7,0.2-2.4,0.6c-0.7,0.4-1.3,1-1.9,1.7H261l0.1-1.7c0.8-0.6,1.5-1.1,2.4-1.4c0.9-0.3,1.9-0.5,2.9-0.5
	c1.8,0,3.1,0.4,4,1.3c0.8,0.9,1.2,2.3,1.2,4.2v0.4l-0.1,5.7v0.9c0,0.9,0.1,1.5,0.3,1.8c0.2,0.3,0.6,0.4,1.1,0.4c0.1,0,0.3,0,0.3,0
	c0.1,0,0.2,0,0.2,0l0.1,0.7l-0.1,0c-1.1,0.3-2,0.5-2.6,0.5c-0.6,0-0.9-0.2-1.2-0.5C269.4,236.2,269.2,235.7,269.1,235 M269.2,228.7
	c-2.9,0.5-4.7,1-5.6,1.6c-0.8,0.5-1.2,1.3-1.2,2.4c0,1,0.3,1.8,0.8,2.3c0.5,0.6,1.2,0.8,2.2,0.8c0.6,0,1.1-0.1,1.8-0.4
	c0.6-0.3,1.1-0.6,1.6-1c0.2-0.2,0.3-0.4,0.4-0.6c0.1-0.2,0.1-0.5,0.1-0.8V228.7z M250.8,222.7c0-0.3,0.1-0.4,0.1-0.6
	c0-0.1,0-0.2,0-0.3c0-0.1,0-0.2,0-0.3c0-0.1,0-0.2,0-0.3c0.4,0,0.7,0,1,0.1c0.4,0,0.7,0,1.1,0v-1.1c0-0.4,0-0.8,0-1.1
	c0-0.4,0-0.9-0.1-1.6c0.5-0.1,1-0.2,1.4-0.3c0.5-0.1,0.8-0.3,1.2-0.5c0,0.7-0.1,1.3-0.1,1.7c0,0.4,0,0.7,0,0.9v2.2c0.6,0,1.3,0,2,0
	c0.7,0,1.5-0.1,2.3-0.2c0,0.2,0,0.3-0.1,0.5c0,0.2,0,0.4,0,0.6v0.3c-0.6,0-1.2-0.1-1.7-0.1c-0.5,0-0.9,0-1.4,0c-0.4,0-0.6,0-0.8,0
	s-0.3,0-0.4,0c0,0.3-0.1,0.6-0.1,0.9c0,0.3,0,0.5,0,0.8c0,0.6,0,1.8-0.1,3.5c-0.1,1.7-0.1,3.1-0.1,4.2c0,1.5,0.2,2.6,0.7,3.2
	c0.4,0.6,1.1,0.9,2.1,0.9c0.3,0,0.7-0.1,1-0.2c0.4-0.1,0.8-0.3,1.3-0.5l0.3,0.8c-0.6,0.4-1.1,0.7-1.8,0.8c-0.6,0.2-1.2,0.3-1.9,0.3
	c-1.5,0-2.5-0.4-3.2-1c-0.7-0.7-1-1.9-1-3.5c0-0.3,0-1.5,0.1-3.5c0-2,0.1-3.9,0.1-5.5v-1.1h-0.4c-0.3,0-0.6,0-0.8,0
	C251.4,222.6,251.1,222.7,250.8,222.7z M236.2,236.9c0.1-0.7,0.1-1.4,0.1-2.2c0-0.8,0-2,0-3.6v-2.4c0-2.2,0-3.7,0-4.7
	c0-1,0-2-0.1-2.8c0.2,0,0.4,0.1,0.7,0.1c0.2,0,0.5,0,0.7,0c0.3,0,0.5,0,0.7,0c0.2,0,0.4-0.1,0.6-0.1c0,0,0,0.1,0,0.2
	c0,0.7-0.1,1.2-0.1,1.5c0,0.1,0,0.3,0,0.6c0,0.3,0,0.5,0,0.6c0.7-1.1,1.4-1.9,2.3-2.4s1.8-0.8,3-0.8c1.8,0,3.1,0.5,4,1.5
	c0.9,1,1.3,2.5,1.3,4.4c0,0.6,0,1.4,0,2.5c0,1.1,0,1.9,0,2.4c0,0.8,0,1.7,0,2.5c0,0.9,0,1.8,0.1,2.7c-0.3-0.1-0.5-0.1-0.7-0.1
	c-0.2,0-0.4,0-0.6,0c-0.2,0-0.4,0-0.7,0c-0.2,0-0.5,0.1-0.7,0.1c0.1-1.1,0.1-2.5,0.2-4.1c0-1.6,0-3.3,0-5.3c0-1.7-0.3-2.9-0.9-3.7
	c-0.6-0.8-1.6-1.2-2.8-1.2c-0.7,0-1.2,0.1-1.8,0.4c-0.5,0.2-0.9,0.6-1.3,1.1c-0.4,0.5-0.7,1.1-0.9,1.9c-0.2,0.7-0.3,1.8-0.3,3.3v1.5
	c0,1.9,0,3.3,0,4.1c0,0.8,0.1,1.5,0.1,2.1c-0.3-0.1-0.5-0.1-0.8-0.1c-0.2,0-0.5,0-0.7,0c-0.2,0-0.4,0-0.7,0
	C236.8,236.8,236.5,236.9,236.2,236.9z M222.6,227.7h8.7v-0.6c0-1.6-0.4-2.9-1.1-3.9c-0.7-0.9-1.7-1.4-3-1.4c-1.3,0-2.4,0.5-3.2,1.6
	C223.1,224.6,222.7,226,222.6,227.7z M233.1,235.4c-0.8,0.6-1.8,1.1-2.7,1.4c-0.9,0.3-1.9,0.5-2.9,0.5c-2.3,0-4.2-0.8-5.7-2.3
	c-1.4-1.5-2.2-3.4-2.2-5.8c0-2.5,0.7-4.5,2.1-6c1.4-1.5,3.2-2.2,5.6-2.2c2.1,0,3.8,0.6,4.9,1.9c1.1,1.3,1.7,3,1.7,5.4
	c0,0.1,0,0.2,0,0.4c0,0.2,0,0.3,0,0.4h-11.4v0.1c0,2.2,0.5,4,1.4,5.1c0.9,1.2,2.3,1.8,4.1,1.8c1,0,1.9-0.2,2.7-0.6
	c0.8-0.4,1.6-0.9,2.4-1.7c0,0.4,0,0.6,0,0.8c0,0.2,0,0.3,0,0.5V235.4z M209.8,233.5c0.6,0.8,1.1,1.5,1.8,1.9
	c0.7,0.4,1.4,0.7,2.2,0.7c1,0,1.8-0.3,2.4-0.8c0.6-0.6,0.9-1.3,0.9-2.2c0-0.7-0.2-1.3-0.6-1.7c-0.4-0.4-1-0.8-2-1l-1.5-0.4
	c-1.3-0.4-2.2-0.9-2.7-1.5c-0.6-0.7-0.8-1.6-0.8-2.7c0-1.4,0.5-2.5,1.4-3.3c0.9-0.9,2.2-1.3,3.7-1.3c0.8,0,1.5,0.1,2.2,0.3
	c0.7,0.2,1.3,0.5,1.9,0.8c-0.1,0.4-0.3,0.7-0.4,1c-0.1,0.4-0.2,0.7-0.3,1c-0.7-0.7-1.3-1.3-1.9-1.6c-0.6-0.4-1.3-0.6-1.9-0.6
	c-0.8,0-1.5,0.3-2.1,0.8c-0.5,0.5-0.8,1.2-0.8,2c0,0.8,0.2,1.3,0.6,1.8c0.4,0.4,1,0.8,2,1l2.3,0.7c1.1,0.3,1.9,0.8,2.4,1.4
	c0.5,0.6,0.8,1.4,0.8,2.4c0,1.5-0.6,2.8-1.6,3.7c-1.1,1-2.5,1.5-4.2,1.5c-0.9,0-1.6-0.1-2.4-0.3c-0.7-0.2-1.4-0.5-1.9-0.9
	c0.2-0.4,0.3-0.8,0.5-1.3C209.6,234.3,209.7,233.9,209.8,233.5z M197.1,227.7h8.7v-0.6c0-1.6-0.4-2.9-1.1-3.9
	c-0.7-0.9-1.7-1.4-3-1.4c-1.3,0-2.4,0.5-3.2,1.6C197.6,224.6,197.1,226,197.1,227.7z M207.6,235.4c-0.9,0.6-1.8,1.1-2.7,1.4
	c-0.9,0.3-1.9,0.5-2.9,0.5c-2.3,0-4.2-0.8-5.7-2.3c-1.4-1.5-2.2-3.4-2.2-5.8c0-2.5,0.7-4.5,2.1-6c1.4-1.5,3.2-2.2,5.6-2.2
	c2.1,0,3.8,0.6,4.9,1.9c1.1,1.3,1.7,3,1.7,5.4c0,0.1,0,0.2,0,0.4c0,0.2,0,0.3,0,0.4H197v0.1c0,2.2,0.5,4,1.4,5.1
	c0.9,1.2,2.3,1.8,4.1,1.8c1,0,1.9-0.2,2.7-0.6c0.8-0.4,1.6-0.9,2.4-1.7c0,0.4,0,0.6,0,0.8c0,0.2,0,0.3,0,0.5V235.4z M186,236.9
	c0.1-1.1,0.1-2.5,0.1-4.2c0-1.7,0-3.9,0-6.6c0-1.4,0-2.4,0-3.1c0-0.7,0-1.2-0.1-1.7c0.2,0,0.5,0.1,0.7,0.1c0.2,0,0.5,0,0.8,0
	c0.3,0,0.5,0,0.7,0c0.2,0,0.5-0.1,0.7-0.1c-0.1,0.5-0.1,1.1-0.2,1.7c0,0.6-0.1,1.3-0.1,2c0.6-1.3,1.3-2.3,2-2.9
	c0.7-0.7,1.4-0.9,2.2-0.9c0.1,0,0.3,0,0.5,0c0.2,0,0.5,0.1,0.8,0.1c-0.1,0.3-0.1,0.7-0.1,1c0,0.4,0,0.9,0,1.5l-0.3,0.2
	c-0.3-0.1-0.6-0.2-0.8-0.3c-0.3-0.1-0.5-0.1-0.8-0.1c-1.2,0-2.1,0.5-2.6,1.6c-0.6,1-0.8,2.7-0.8,5.1c0,1.4,0,2.6,0,3.8
	c0,1.1,0.1,2.1,0.1,2.9c-0.2,0-0.4-0.1-0.7-0.1c-0.2,0-0.5,0-0.8,0c-0.2,0-0.4,0-0.6,0C186.5,236.8,186.3,236.9,186,236.9z
	 M169.1,246c0-1,0.1-2.3,0.1-4c0-1.7,0-5,0-9.7c0-3.1,0-5.3,0-6.8s-0.1-2.9-0.1-4.1c0.2,0.1,0.4,0.1,0.6,0.1c0.2,0,0.4,0,0.6,0
	c0.3,0,0.5,0,0.8,0c0.2,0,0.5,0,0.7-0.1c0,0.4-0.1,0.8-0.1,1.3c0,0.5,0,1,0,1.6c0.7-1.1,1.5-2,2.4-2.5c0.9-0.6,2-0.8,3.2-0.8
	c2.2,0,3.8,0.7,5,2.1c1.1,1.4,1.7,3.4,1.7,6.1c0,2.5-0.7,4.4-1.9,5.9c-1.3,1.5-3,2.2-5.1,2.2c-1.1,0-2.1-0.2-3-0.7
	c-0.8-0.5-1.6-1.2-2.2-2.1v4c0,0.3,0,1.5,0.1,3.7c0,1.5,0.1,2.8,0.1,3.8c-0.3-0.1-0.5-0.1-0.7-0.1c-0.2,0-0.5,0-0.7,0
	c-0.2,0-0.4,0-0.7,0C169.6,245.9,169.4,245.9,169.1,246z M171.5,229.2c0,2.3,0.4,4,1.2,5.1c0.8,1.2,2,1.8,3.5,1.8s2.7-0.6,3.6-1.8
	c0.8-1.2,1.2-3,1.2-5.2c0-2.2-0.4-3.8-1.3-5c-0.9-1.2-2-1.7-3.5-1.7c-1.5,0-2.6,0.6-3.5,1.8C171.9,225.3,171.5,227,171.5,229.2z
	 M155.4,227.7h8.7v-0.6c0-1.6-0.4-2.9-1.1-3.9c-0.7-0.9-1.7-1.4-3-1.4c-1.3,0-2.4,0.5-3.2,1.6C155.9,224.6,155.5,226,155.4,227.7z
	 M165.9,235.4c-0.8,0.6-1.8,1.1-2.7,1.4c-0.9,0.3-1.9,0.5-2.9,0.5c-2.3,0-4.2-0.8-5.7-2.3c-1.4-1.5-2.2-3.4-2.2-5.8
	c0-2.5,0.7-4.5,2.1-6c1.4-1.5,3.2-2.2,5.6-2.2c2.1,0,3.8,0.6,4.9,1.9c1.1,1.3,1.7,3,1.7,5.4c0,0.1,0,0.2,0,0.4c0,0.2,0,0.3,0,0.4
	h-11.4v0.1c0,2.2,0.5,4,1.4,5.1c0.9,1.2,2.3,1.8,4.1,1.8c1,0,1.9-0.2,2.7-0.6c0.8-0.4,1.6-0.9,2.4-1.7c0,0.4,0,0.6,0,0.8
	c0,0.2,0,0.3,0,0.5V235.4z M144.4,236.9c0.1-1.1,0.1-2.5,0.1-4.2c0-1.7,0-3.9,0-6.6c0-1.4,0-2.4,0-3.1c0-0.7,0-1.2-0.1-1.7
	c0.2,0,0.5,0.1,0.7,0.1c0.2,0,0.5,0,0.8,0c0.3,0,0.5,0,0.7,0c0.2,0,0.5-0.1,0.7-0.1c-0.1,0.5-0.1,1.1-0.2,1.7c0,0.6-0.1,1.3-0.1,2
	c0.6-1.3,1.3-2.3,2-2.9c0.7-0.7,1.4-0.9,2.2-0.9c0.1,0,0.3,0,0.5,0c0.2,0,0.5,0.1,0.8,0.1c-0.1,0.3-0.1,0.7-0.1,1c0,0.4,0,0.9,0,1.5
	L152,224c-0.3-0.1-0.6-0.2-0.8-0.3c-0.3-0.1-0.5-0.1-0.8-0.1c-1.2,0-2.1,0.5-2.6,1.6c-0.6,1-0.8,2.7-0.8,5.1c0,1.4,0,2.6,0,3.8
	c0,1.1,0.1,2.1,0.1,2.9c-0.2,0-0.4-0.1-0.7-0.1c-0.2,0-0.5,0-0.8,0c-0.2,0-0.4,0-0.6,0C144.8,236.8,144.6,236.9,144.4,236.9z
	 M130.6,236.9c0.1-0.8,0.1-1.8,0.1-3c0-1.2,0-3.5,0-6.6v-8.7c0-2,0-3.4,0-4.2c0-0.8,0-1.6-0.1-2.3c0.3,0,0.6,0,0.8,0
	c0.2,0,0.4,0,0.6,0s0.4,0,0.6,0c0.2,0,0.5,0,0.8,0c-0.1,1.1-0.1,2.3-0.2,3.7c0,1.4,0,3.6,0,6.6c0,4,0,7.1,0,9.3c0,2.3,0.1,4,0.1,5.3
	c-0.2,0-0.5-0.1-0.7-0.1c-0.2,0-0.5,0-0.7,0s-0.5,0-0.7,0C131,236.9,130.9,236.9,130.6,236.9z M124.4,235c-0.7,0.7-1.5,1.3-2.3,1.7
	c-0.9,0.4-1.7,0.6-2.7,0.6c-1.4,0-2.6-0.4-3.4-1.1c-0.8-0.7-1.2-1.7-1.2-3c0-1.2,0.3-2.1,0.9-2.8c0.6-0.7,1.6-1.2,2.9-1.5
	c0.6-0.1,1.3-0.3,2.3-0.4c2-0.4,3.1-0.7,3.5-1.1v-0.7c0-1.5-0.3-2.6-0.9-3.3c-0.6-0.7-1.5-1-2.8-1c-0.9,0-1.7,0.2-2.4,0.6
	c-0.7,0.4-1.3,1-1.9,1.7h-0.3l0.1-1.7c0.8-0.6,1.5-1.1,2.5-1.4c0.9-0.3,1.9-0.5,2.9-0.5c1.8,0,3.1,0.4,4,1.3
	c0.8,0.9,1.2,2.3,1.2,4.2v0.4l-0.1,5.7v0.9c0,0.9,0.1,1.5,0.3,1.8c0.2,0.3,0.6,0.4,1.1,0.4c0.1,0,0.3,0,0.3,0c0.1,0,0.2,0,0.2,0
	l0.1,0.7l-0.1,0c-1.1,0.3-2,0.5-2.6,0.5c-0.6,0-0.9-0.2-1.2-0.5C124.7,236.2,124.5,235.7,124.4,235z M124.4,228.7
	c-2.9,0.5-4.7,1-5.6,1.6c-0.8,0.5-1.2,1.3-1.2,2.4c0,1,0.3,1.8,0.8,2.3c0.5,0.6,1.2,0.8,2.2,0.8c0.6,0,1.1-0.1,1.8-0.4
	c0.6-0.3,1.1-0.6,1.6-1c0.2-0.2,0.3-0.4,0.4-0.6c0.1-0.2,0.1-0.5,0.1-0.8V228.7z M109.4,215.5c0-0.5,0.2-0.9,0.5-1.2
	c0.3-0.3,0.8-0.5,1.2-0.5c0.5,0,0.9,0.2,1.2,0.5c0.3,0.3,0.5,0.7,0.5,1.2c0,0.5-0.2,0.8-0.5,1.2c-0.3,0.3-0.7,0.5-1.2,0.5
	c-0.5,0-0.9-0.2-1.2-0.5C109.6,216.3,109.4,216,109.4,215.5z M109.7,236.9c0.1-1.5,0.1-3,0.1-4.3c0-1.4,0-2.6,0-3.9
	c0-1.1,0-2.3,0-3.5c0-1.2-0.1-2.5-0.1-3.9c0.2,0.1,0.4,0.1,0.7,0.1c0.2,0,0.5,0,0.7,0c0.3,0,0.5,0,0.7,0c0.2,0,0.5-0.1,0.6-0.1
	c0,1.4-0.1,2.7-0.1,3.9c0,1.2,0,2.4,0,3.5c0,1.3,0,2.6,0,3.9c0,1.4,0.1,2.8,0.1,4.3c-0.2-0.1-0.5-0.1-0.7-0.1c-0.2,0-0.5,0-0.7,0
	c-0.2,0-0.4,0-0.6,0C110.2,236.8,110,236.9,109.7,236.9z M107.7,235.6c-0.8,0.6-1.6,1-2.5,1.3c-0.9,0.3-2,0.4-3.2,0.4
	c-2.3,0-4.2-0.8-5.6-2.2c-1.4-1.5-2.1-3.5-2.1-5.9c0-2.5,0.8-4.4,2.3-5.9c1.5-1.5,3.5-2.2,5.9-2.2c1,0,1.9,0.1,2.8,0.3
	c0.9,0.2,1.8,0.6,2.6,1c-0.2,0.4-0.4,0.8-0.5,1.3c-0.2,0.5-0.3,1-0.4,1.5c-0.5-1-1.1-1.8-1.8-2.4c-0.8-0.5-1.6-0.8-2.7-0.8
	c-1.7,0-3.1,0.6-4.1,1.9c-0.9,1.2-1.4,3-1.4,5.2c0,2.1,0.5,3.9,1.6,5.1c1,1.3,2.5,1.9,4.2,1.9c0.9,0,1.8-0.2,2.6-0.6
	c0.8-0.4,1.6-1,2.4-1.8c0,0.1,0,0.1,0,0.2c0,0.5,0,0.8,0,1c0,0.2,0,0.3,0,0.4C107.7,235.5,107.7,235.5,107.7,235.6z M88.8,215.5
	c0-0.5,0.2-0.9,0.5-1.2c0.3-0.3,0.8-0.5,1.2-0.5c0.5,0,0.8,0.2,1.2,0.5c0.3,0.3,0.5,0.7,0.5,1.2c0,0.5-0.2,0.8-0.5,1.2
	c-0.3,0.3-0.7,0.5-1.2,0.5c-0.5,0-0.9-0.2-1.2-0.5C89,216.3,88.8,216,88.8,215.5z M89.1,236.9c0.1-1.5,0.1-3,0.1-4.3
	c0-1.4,0-2.6,0-3.9c0-1.1,0-2.3,0-3.5c0-1.2-0.1-2.5-0.1-3.9c0.2,0.1,0.4,0.1,0.7,0.1c0.2,0,0.5,0,0.7,0c0.3,0,0.5,0,0.7,0
	c0.2,0,0.5-0.1,0.6-0.1c0,1.4-0.1,2.7-0.1,3.9c0,1.2,0,2.4,0,3.5c0,1.3,0,2.6,0,3.9c0,1.4,0.1,2.8,0.1,4.3c-0.2-0.1-0.5-0.1-0.7-0.1
	c-0.2,0-0.5,0-0.7,0c-0.2,0-0.4,0-0.6,0C89.7,236.8,89.4,236.9,89.1,236.9z M81.3,236.9c0.1-0.8,0.1-1.9,0.2-3.3c0-1.5,0-3.7,0-6.8
	v-4.1c-0.7,0-1.1,0-1.4,0c-0.3,0-0.6,0-0.8,0v-1.3h0.1c0.6,0.1,1,0.1,1.3,0.1c0.1,0,0.3,0,0.5,0c0.2,0,0.3,0,0.4,0
	c0-2.9,0.6-5.2,1.8-6.9c1.1-1.7,2.7-2.5,4.6-2.5c0.2,0,0.3,0,0.4,0c0.1,0,0.2,0,0.3,0l-0.3,2.6c-0.3-0.1-0.6-0.2-0.9-0.3
	c-0.3-0.1-0.7-0.1-1-0.1c-0.9,0-1.6,0.2-2.1,0.8c-0.5,0.5-0.7,1.3-0.7,2.3c0,0.4,0,1,0.1,1.7c0.1,0.7,0.1,1.5,0.2,2.4
	c0.2,0,0.4,0,0.8,0c0.3,0,0.6,0,0.7,0c0.2,0,0.5,0,0.8,0c0.3,0,0.7,0,1.2-0.1v1.3c-0.5,0-1.3,0-2.5-0.1c-0.4,0-0.7,0-0.8,0
	c0,3.9,0,6.9,0,9.2c0,2.3,0.1,4,0.2,5.1c-0.2-0.1-0.5-0.1-0.8-0.1c-0.2,0-0.5,0-0.7,0c-0.2,0-0.5,0-0.7,0
	C81.9,236.8,81.6,236.9,81.3,236.9z M73.7,236.9c0.1-0.8,0.1-1.9,0.2-3.3c0-1.5,0-3.7,0-6.8v-4.1c-0.7,0-1.1,0-1.4,0
	c-0.3,0-0.6,0-0.8,0v-1.3h0.1c0.6,0.1,1,0.1,1.3,0.1c0.1,0,0.3,0,0.5,0c0.2,0,0.3,0,0.4,0c0-2.9,0.6-5.2,1.8-6.9
	c1.1-1.7,2.7-2.5,4.6-2.5c0.2,0,0.3,0,0.4,0c0.1,0,0.2,0,0.3,0l-0.3,2.6c-0.3-0.1-0.6-0.2-0.9-0.3c-0.3-0.1-0.7-0.1-1-0.1
	c-0.9,0-1.6,0.2-2.1,0.8c-0.5,0.5-0.7,1.3-0.7,2.3c0,0.4,0,1,0.1,1.7c0.1,0.7,0.1,1.5,0.2,2.4c0.2,0,0.4,0,0.8,0c0.3,0,0.6,0,0.7,0
	c0.2,0,0.5,0,0.8,0c0.3,0,0.7,0,1.2-0.1v1.3c-0.5,0-1.3,0-2.5-0.1c-0.4,0-0.7,0-0.8,0c0,3.9,0,6.9,0,9.2c0,2.3,0.1,4,0.2,5.1
	c-0.2-0.1-0.5-0.1-0.8-0.1c-0.2,0-0.5,0-0.7,0s-0.5,0-0.7,0C74.2,236.8,74,236.9,73.7,236.9z M63.6,237.2c-2.3,0-4.2-0.8-5.7-2.3
	c-1.5-1.5-2.2-3.5-2.2-5.8c0-2.4,0.7-4.3,2.2-5.8c1.5-1.5,3.3-2.3,5.6-2.3c2.3,0,4.2,0.8,5.7,2.3c1.5,1.5,2.2,3.5,2.2,5.9
	c0,2.4-0.7,4.3-2.2,5.8C67.7,236.5,65.9,237.2,63.6,237.2z M63.6,236.2c1.6,0,2.9-0.6,3.8-1.8c0.8-1.2,1.3-2.9,1.3-5.1
	c0-2.4-0.4-4.2-1.3-5.5c-0.9-1.3-2.1-1.9-3.8-1.9c-1.6,0-2.9,0.6-3.7,1.8c-0.8,1.2-1.3,3-1.3,5.3c0,2.3,0.4,4.1,1.3,5.3
	S61.9,236.2,63.6,236.2z"/>
<path class="st1" d="M305.5,227.7h8.7v-0.6c0-1.6-0.4-2.9-1.1-3.9c-0.7-0.9-1.7-1.4-3-1.4c-1.3,0-2.4,0.5-3.2,1.6
	C306,224.6,305.5,226,305.5,227.7 M316,235.4c-0.8,0.6-1.8,1.1-2.7,1.4c-0.9,0.3-1.9,0.5-2.9,0.5c-2.3,0-4.2-0.8-5.7-2.3
	c-1.4-1.5-2.2-3.4-2.2-5.8c0-2.5,0.7-4.5,2.1-6c1.4-1.5,3.2-2.2,5.6-2.2c2.1,0,3.8,0.6,4.9,1.9c1.1,1.3,1.7,3,1.7,5.4
	c0,0.1,0,0.2,0,0.4c0,0.2,0,0.3,0,0.4h-11.4v0.1c0,2.2,0.5,4,1.4,5.1c0.9,1.2,2.3,1.8,4.1,1.8c1,0,1.9-0.2,2.7-0.6
	c0.8-0.4,1.6-0.9,2.4-1.7c0,0.4,0,0.6,0,0.8c0,0.2,0,0.3,0,0.5V235.4z M294.3,236.9c-0.5-1.5-1.2-3.5-2.2-6c-1-2.5-2.4-5.7-4.2-9.6
	c0.2,0,0.5,0.1,0.7,0.1c0.2,0,0.5,0,0.8,0c0.3,0,0.6,0,0.8,0c0.3,0,0.5-0.1,0.8-0.1c0.3,1.4,0.9,3.1,1.7,5.2
	c0.8,2.1,1.9,4.5,3.1,7.4c1-2.1,2-4.1,2.8-6.2c0.8-2.1,1.5-4.2,2.1-6.3c0.2,0,0.3,0.1,0.5,0.1c0.2,0,0.4,0,0.6,0c0.2,0,0.4,0,0.6,0
	c0.2,0,0.3-0.1,0.5-0.1c-1.7,3.7-3.1,6.9-4.3,9.8c-1.2,2.8-2,4.8-2.3,5.9c-0.1,0-0.3,0-0.4-0.1c-0.2,0-0.4,0-0.7,0
	c-0.3,0-0.5,0-0.6,0C294.5,236.9,294.4,236.9,294.3,236.9z M283.4,215.5c0-0.5,0.2-0.9,0.5-1.2c0.3-0.3,0.8-0.5,1.2-0.5
	c0.5,0,0.8,0.2,1.2,0.5c0.3,0.3,0.5,0.7,0.5,1.2c0,0.5-0.2,0.8-0.5,1.2c-0.3,0.3-0.7,0.5-1.2,0.5c-0.5,0-0.9-0.2-1.2-0.5
	C283.5,216.3,283.4,216,283.4,215.5z M283.7,236.9c0.1-1.5,0.1-3,0.1-4.3c0-1.4,0-2.6,0-3.9c0-1.1,0-2.3,0-3.5
	c0-1.2-0.1-2.5-0.1-3.9c0.2,0.1,0.4,0.1,0.7,0.1c0.2,0,0.5,0,0.7,0c0.3,0,0.5,0,0.7,0c0.2,0,0.5-0.1,0.6-0.1c0,1.4-0.1,2.7-0.1,3.9
	c0,1.2,0,2.4,0,3.5c0,1.3,0,2.6,0,3.9c0,1.4,0.1,2.8,0.1,4.3c-0.2-0.1-0.5-0.1-0.7-0.1c-0.2,0-0.5,0-0.7,0c-0.2,0-0.4,0-0.6,0
	C284.2,236.8,284,236.9,283.7,236.9z M273.3,222.7c0-0.3,0.1-0.4,0.1-0.6s0-0.2,0-0.3c0-0.1,0-0.2,0-0.3c0-0.1,0-0.2,0-0.3
	c0.4,0,0.7,0,1,0.1c0.4,0,0.7,0,1.1,0v-1.1c0-0.4,0-0.8,0-1.1c0-0.4,0-0.9-0.1-1.6c0.5-0.1,1-0.2,1.4-0.3c0.5-0.1,0.8-0.3,1.2-0.5
	c0,0.7-0.1,1.3-0.1,1.7c0,0.4,0,0.7,0,0.9v2.2c0.6,0,1.3,0,2,0c0.7,0,1.5-0.1,2.3-0.2c0,0.2,0,0.3-0.1,0.5c0,0.2,0,0.4,0,0.6v0.3
	c-0.6,0-1.2-0.1-1.7-0.1c-0.5,0-0.9,0-1.4,0c-0.4,0-0.6,0-0.8,0c-0.2,0-0.3,0-0.4,0c0,0.3-0.1,0.6-0.1,0.9c0,0.3,0,0.5,0,0.8
	c0,0.6,0,1.8-0.1,3.5c-0.1,1.7-0.1,3.1-0.1,4.2c0,1.5,0.2,2.6,0.7,3.2c0.4,0.6,1.1,0.9,2.1,0.9c0.3,0,0.7-0.1,1-0.2
	c0.4-0.1,0.8-0.3,1.3-0.5l0.3,0.8c-0.6,0.4-1.1,0.7-1.8,0.8c-0.6,0.2-1.2,0.3-1.9,0.3c-1.5,0-2.5-0.4-3.2-1c-0.7-0.7-1-1.9-1-3.5
	c0-0.3,0-1.5,0.1-3.5c0-2,0.1-3.9,0.1-5.5v-1.1H275c-0.3,0-0.6,0-0.9,0C273.9,222.6,273.6,222.7,273.3,222.7z"/>
<path class="st1" d="M238,26.7c-68.7,10.2-117.6,35.8-117.6,65.5c0,29.8,48.9,55.3,117.5,65.5c-60.9-10.9-103.7-36.2-103.7-65.5
	C134.2,62.9,177,37.5,238,26.7"/>
<path class="st1" d="M210.5,188.1h-21.9V178h21.9V188.1z M153.1,183.7c0,7.2,0.7,12.2,2.1,15.2c1.4,2.9,3.7,4.4,7.1,4.4
	c3.3,0,5.7-1.5,7.1-4.4c1.4-2.9,2.1-8,2.1-15.1s-0.7-12.2-2.1-15.2c-1.4-3-3.8-4.5-7.1-4.5c-3.3,0-5.7,1.5-7.1,4.4
	C153.8,171.4,153.1,176.5,153.1,183.7z M140,183.7c0-7.5,2-13.4,5.9-17.6c3.9-4.2,9.4-6.3,16.4-6.3c7.1,0,12.6,2.1,16.5,6.2
	c3.8,4.1,5.8,10,5.8,17.7c0,7.5-2,13.3-5.9,17.5c-3.9,4.2-9.4,6.2-16.4,6.2c-7.1,0-12.6-2.1-16.4-6.2C142,197.1,140,191.2,140,183.7
	z M113.1,206.3c0.2-3.1,0.3-6.5,0.5-10.3c0.1-3.7,0.2-7.9,0.2-12.4c0-5.7-0.1-10.2-0.2-13.6c-0.1-3.4-0.3-6.4-0.5-9
	c0.9,0.1,1.9,0.2,2.9,0.3c1,0.1,2.1,0.1,3.3,0.1c1.2,0,2.2,0,3.3-0.1c1-0.1,2-0.1,2.9-0.3c-0.1,2.9-0.2,5.3-0.3,7.2
	c-0.1,1.9-0.1,3.5-0.1,4.8h0.4c1.1-4.3,2.8-7.6,5.1-9.9c2.3-2.3,5.2-3.4,8.7-3.4h0.4c-0.2,1.1-0.3,2.3-0.4,3.4
	c-0.1,1.1-0.1,2.3-0.1,3.4c0,1.1,0,2.4,0.1,3.5c0.1,1.2,0.2,2.4,0.4,3.5c-1.2-0.5-2.3-0.8-3.3-1c-1-0.2-1.8-0.4-2.5-0.4
	c-2.9,0-5.1,1.1-6.4,3.2c-1.3,2.1-2,5.5-2,10.2c0,3.6,0.1,7.2,0.2,10.6c0.2,3.5,0.3,6.7,0.6,9.9c-1.2-0.2-2.3-0.3-3.4-0.3
	c-1.1-0.1-2.1-0.1-3.2-0.1s-2,0-3.1,0.1C115.6,206,114.4,206.1,113.1,206.3z M106,161.1c-0.2,3.8-0.3,7.6-0.4,11.3
	c-0.1,3.8-0.2,7.5-0.2,11.2c0,3.8,0.1,7.5,0.2,11.3c0.1,3.8,0.2,7.5,0.4,11.3c-1.1-0.2-2.2-0.3-3.2-0.4c-1-0.1-1.9-0.1-2.8-0.1
	c-0.9,0-1.9,0-2.9,0.1c-1,0.1-2.1,0.2-3.2,0.4v-6.4c-1.9,2.5-4,4.4-6.1,5.6c-2.2,1.2-4.7,1.8-7.5,1.8c-4.6,0-7.9-1.4-10-4.1
	C68.1,200.4,67,196,67,190v-5.2c0-3.6,0-7.3-0.1-11.2c-0.1-3.9-0.2-8.1-0.4-12.4c1,0.1,2.1,0.2,3.1,0.3c1.1,0.1,2.3,0.1,3.5,0.1
	c1.3,0,2.5,0,3.5-0.1c1.1,0,2.1-0.1,3.1-0.3c-0.2,4-0.4,7.7-0.5,11.3c-0.1,3.6-0.2,6.9-0.2,10c0,7,0.5,11.6,1.6,13.7
	c1,2.1,2.9,3.2,5.5,3.2c2.6,0,4.5-1.1,5.6-3.2c1.1-2.2,1.6-6,1.6-11.5v-15c0-1,0-2.2-0.1-3.6c-0.1-1.4-0.1-3-0.2-4.9
	c1,0.1,2,0.2,3.1,0.3c1,0.1,2.1,0.1,3.4,0.1c1.2,0,2.3,0,3.4-0.1C104.1,161.3,105.1,161.2,106,161.1z M35.6,179.2h15.1
	c0-0.4,0-0.8,0-1.3c0-0.5,0-0.8,0-1c0-4.3-0.6-7.5-1.8-9.7c-1.2-2.2-2.9-3.3-5.2-3.3c-2.6,0-4.6,1.2-6.1,3.7
	c-1.4,2.5-2.2,6.1-2.2,10.7V179.2z M35.6,183.8c0,5.5,1.3,9.8,3.7,13c2.5,3.2,5.7,4.8,9.9,4.8c2.1,0,4-0.4,5.9-1.1
	c1.9-0.8,3.7-1.9,5.5-3.4l0.9,0.7l-2,5.4c-1.8,1.4-4,2.4-6.5,3.2c-2.5,0.8-5.2,1.1-8.1,1.1c-6.9,0-12.3-2.2-16.3-6.5
	c-3.9-4.3-5.9-10.4-5.9-18c0-6.9,1.9-12.4,5.9-16.7c3.9-4.2,9.1-6.4,15.5-6.4c6.1,0,10.8,1.8,14,5.4c3.3,3.6,4.9,8.8,4.9,15.5
	c0,0.8,0,1.4,0,1.9c0,0.4-0.1,0.8-0.1,1.1L35.6,183.8z"/>
<path class="st1" d="M333.6,181.4c-4.1,0.9-7.1,2.2-8.9,4c-1.8,1.8-2.7,4.3-2.7,7.6c0,2.7,0.5,4.7,1.4,6.1c0.9,1.3,2.3,2,4.1,2
	c2,0,3.5-0.8,4.5-2.3c1-1.5,1.6-3.7,1.6-6.5V181.4 M333.9,200.3c-1.3,2.3-2.9,4.1-5,5.3c-2.1,1.2-4.4,1.8-7,1.8
	c-3.7,0-6.7-1.2-8.8-3.5c-2.1-2.4-3.2-5.6-3.2-9.6c0-3,0.8-5.5,2.2-7.4c1.5-2,3.9-3.5,7.1-4.6c1-0.4,2.5-0.8,4.5-1.5
	c4.6-1.5,7.8-2.8,9.5-4.1c0-0.2,0.1-0.4,0.1-0.6c0-0.2,0-0.6,0-1c0-2.9-0.8-5.2-2.3-6.9c-1.5-1.7-3.6-2.5-6.1-2.5
	c-2,0-3.8,0.6-5.5,1.8c-1.6,1.2-3.1,3-4.5,5.5c-0.4-1.5-0.8-2.6-1.1-3.6c-0.3-0.9-0.6-1.7-0.9-2.5c2.6-2.5,5.3-4.2,7.8-5.4
	c2.6-1.2,5.3-1.8,8-1.8c5.3,0,9.4,1.3,12.3,3.9c2.9,2.6,4.3,6.4,4.3,11.2v0.5l-0.3,16.5v1.8c0,3.9,0.4,6.3,1.2,7.4
	c0.8,1.1,2.4,1.6,4.7,1.6h0.3v2.4c-1.5,0.7-3.1,1.2-4.7,1.5c-1.6,0.4-3.2,0.6-4.6,0.6c-2.2,0-3.9-0.6-5.3-1.8
	C335.3,204.2,334.4,202.6,333.9,200.3z M291.9,144c0-2,0.7-3.7,2-5.1c1.3-1.4,2.9-2.1,4.8-2.1c1.8,0,3.4,0.7,4.7,2.1
	c1.3,1.4,1.9,3.1,1.9,5.1c0,2-0.6,3.7-1.9,5.1c-1.3,1.4-2.9,2.1-4.8,2.1c-1.9,0-3.5-0.7-4.8-2.1C292.5,147.7,291.9,146,291.9,144z
	 M291.9,206.3c0.2-4.8,0.4-9,0.5-12.6c0.1-3.6,0.1-6.9,0.1-10c0-3.6-0.1-7.2-0.2-10.9c-0.1-3.7-0.2-7.6-0.5-11.7
	c1,0.1,2.1,0.2,3.2,0.2c1.1,0,2.2,0.1,3.4,0.1c1.1,0,2.3,0,3.4-0.1c1.1-0.1,2.2-0.1,3.2-0.2c-0.2,4.1-0.4,8-0.5,11.7
	c-0.1,3.7-0.2,7.3-0.2,10.9c0,3.1,0.1,6.5,0.2,10c0.1,3.6,0.2,7.8,0.5,12.6c-1.1-0.2-2.2-0.3-3.3-0.4c-1.1-0.1-2.2-0.1-3.2-0.1
	c-1.1,0-2.1,0-3.2,0.1C294.2,206,293.1,206.1,291.9,206.3z M256.8,193.3h1.3c1,3.1,2.4,5.5,4.5,7.2c2,1.7,4.3,2.5,7,2.5
	c2.1,0,3.8-0.6,4.9-1.7c1.2-1.1,1.8-2.6,1.8-4.7c0-2.5-2.9-5.1-8.6-7.6c-0.8-0.3-1.4-0.6-1.8-0.8c-4.1-1.8-6.9-3.7-8.5-5.6
	c-1.5-1.9-2.3-4.4-2.3-7.3c0-4.6,1.5-8.4,4.5-11.2c3-2.8,6.9-4.2,11.8-4.2c2.3,0,4.5,0.3,6.6,1c2.1,0.7,4.2,1.7,6.2,3
	c-0.6,1.4-1.1,2.9-1.5,4.4c-0.5,1.5-0.8,3-1.1,4.5h-0.9c-1.3-2.9-2.8-5.1-4.6-6.5c-1.8-1.5-3.7-2.2-5.9-2.2c-1.8,0-3.4,0.6-4.6,1.6
	c-1.2,1.1-1.8,2.5-1.8,4.2c0,1.4,0.4,2.6,1.3,3.5c0.9,0.9,2.9,2.1,6.2,3.4c6.5,2.7,10.5,5,12.1,6.9c1.6,1.9,2.4,4.4,2.4,7.6
	c0,4.8-1.6,8.7-4.7,11.7c-3.1,3-7.2,4.4-12.2,4.4c-2.8,0-5.2-0.3-7.4-0.9c-2.1-0.6-4.1-1.5-5.9-2.8c0.2-1.1,0.5-4.1,1-8.8
	L256.8,193.3z M237.1,181.4c-4.1,0.9-7.1,2.2-8.9,4c-1.8,1.8-2.7,4.3-2.7,7.6c0,2.7,0.5,4.7,1.4,6.1c0.9,1.3,2.3,2,4.1,2
	c2,0,3.5-0.8,4.5-2.3c1-1.5,1.6-3.7,1.6-6.5V181.4z M237.4,200.3c-1.3,2.3-2.9,4.1-5,5.3c-2.1,1.2-4.4,1.8-7,1.8
	c-3.7,0-6.7-1.2-8.8-3.5c-2.1-2.4-3.2-5.6-3.2-9.6c0-3,0.8-5.5,2.2-7.4c1.5-2,3.9-3.5,7.1-4.6c1-0.4,2.5-0.8,4.5-1.5
	c4.6-1.5,7.8-2.8,9.5-4.1c0-0.2,0.1-0.4,0.1-0.6c0-0.2,0-0.6,0-1c0-2.9-0.8-5.2-2.3-6.9c-1.5-1.7-3.6-2.5-6.1-2.5
	c-2,0-3.8,0.6-5.5,1.8c-1.6,1.2-3.1,3-4.5,5.5c-0.4-1.5-0.8-2.6-1.1-3.6c-0.3-0.9-0.6-1.7-0.9-2.5c2.6-2.5,5.3-4.2,7.8-5.4
	c2.6-1.2,5.3-1.8,8-1.8c5.3,0,9.4,1.3,12.3,3.9c2.9,2.6,4.3,6.4,4.3,11.2v0.5l-0.3,16.5v1.8c0,3.9,0.4,6.3,1.2,7.4
	c0.8,1.1,2.4,1.6,4.7,1.6h0.3v2.4c-1.5,0.7-3.1,1.2-4.7,1.5c-1.6,0.4-3.2,0.6-4.6,0.6c-2.1,0-3.9-0.6-5.3-1.8
	C238.8,204.2,237.9,202.6,237.4,200.3z"/>
<path class="st2" d="M123,276.3c0.1,0.5,0.2,1,0.3,1.6c0.1,0.6,0.2,1.2,0.3,1.8c0.4,0.2,0.9,0.4,1.3,0.5c0.4,0.2,0.9,0.3,1.5,0.3
	c0.5,0.1,1.1,0.1,1.8,0.1c1.2,0,2.2-0.2,3.1-0.6c0.9-0.4,1.6-0.9,2.1-1.6c0.5-0.7,0.7-1.5,0.8-2.4c0-0.6-0.1-1.1-0.3-1.5
	c-0.2-0.5-0.5-0.9-0.9-1.3c-0.4-0.4-0.8-0.7-1.2-1c-0.4-0.3-0.9-0.6-1.4-0.8c-0.2-0.1-0.4-0.2-0.6-0.4c-0.3-0.1-0.6-0.3-0.9-0.4
	c-0.3-0.1-0.7-0.3-1-0.4c-0.3-0.1-0.6-0.3-0.9-0.4c-0.4-0.3-0.7-0.6-1-1c-0.2-0.4-0.4-0.8-0.4-1.2c0-0.4,0.1-0.8,0.3-1.1
	c0.2-0.3,0.5-0.6,0.8-0.8c0.3-0.2,0.7-0.3,1.1-0.4c0.4-0.1,0.8-0.1,1.2-0.1c0.7,0,1.2,0.1,1.7,0.3c0.5,0.2,0.8,0.5,1.1,0.9
	c0.3,0.5,0.5,1.1,0.7,1.9l0.8-0.2c-0.1-0.7-0.2-1.3-0.3-1.8c-0.1-0.5-0.1-1-0.2-1.4c-0.6-0.2-1.2-0.4-1.8-0.6
	c-0.6-0.1-1.3-0.2-2.1-0.2c-0.9,0-1.7,0.1-2.4,0.3c-0.7,0.2-1.2,0.5-1.6,0.9c-0.4,0.4-0.7,0.8-0.9,1.2c-0.2,0.4-0.3,0.9-0.3,1.4
	c0,0.5,0.1,1,0.3,1.4c0.2,0.4,0.4,0.8,0.6,1.1c0.3,0.3,0.6,0.6,1,0.8c0.4,0.2,0.8,0.5,1.2,0.7c0.4,0.2,0.9,0.5,1.3,0.7
	c0.5,0.3,1,0.5,1.5,0.7c0.5,0.2,0.8,0.4,1.2,0.6c0.3,0.2,0.6,0.4,0.8,0.6c0.2,0.2,0.4,0.5,0.5,0.8c0.1,0.3,0.2,0.6,0.2,1
	c0,0.4-0.1,0.8-0.2,1.2c-0.2,0.4-0.4,0.7-0.7,1c-0.3,0.3-0.7,0.5-1.2,0.7c-0.5,0.2-1.1,0.3-1.7,0.3c-0.7,0-1.4-0.1-1.9-0.3
	c-0.6-0.2-1-0.6-1.4-1.1c-0.4-0.5-0.7-1.3-0.9-2.2L123,276.3"/>
<path class="st2" d="M140.7,264.4c-0.4,0.3-0.8,0.5-1.2,0.7c-0.4,0.2-0.8,0.3-1.2,0.5c-0.4,0.1-0.9,0.2-1.5,0.3v0.7
	c0.5,0,0.9,0,1.2,0c0.3,0,0.5,0.1,0.7,0.2c0.1,0.1,0.2,0.3,0.3,0.6c0,0.3,0,0.7,0,1.2v8.7c0,0.5,0,0.9,0,1.2c0,0.3-0.1,0.5-0.3,0.7
	c-0.1,0.2-0.4,0.3-0.7,0.3c-0.3,0.1-0.7,0.1-1.2,0.1v0.8h6.3v-0.8c-0.5,0-0.9,0-1.2-0.1c-0.3-0.1-0.5-0.2-0.6-0.3
	c-0.1-0.2-0.2-0.4-0.2-0.7c0-0.3,0-0.7,0-1.2v-12.8L140.7,264.4 M139.8,258.7c-0.4,0-0.7,0.2-0.9,0.5c-0.2,0.3-0.4,0.8-0.4,1.4
	c0,0.6,0.1,1.1,0.4,1.4c0.2,0.3,0.6,0.5,0.9,0.5c0.2,0,0.5-0.1,0.7-0.2c0.2-0.1,0.4-0.4,0.5-0.6c0.1-0.3,0.2-0.6,0.2-1
	c0-0.6-0.1-1-0.4-1.3C140.5,258.9,140.2,258.7,139.8,258.7z"/>
<path class="st2" d="M149.2,267.3l-0.1-2.7l-0.3-0.2c-0.3,0.3-0.7,0.5-1,0.7c-0.3,0.2-0.7,0.3-1.1,0.5c-0.4,0.1-0.9,0.2-1.4,0.3v0.7
	c0.5,0,0.8,0,1.1,0.1c0.3,0,0.5,0.1,0.6,0.3c0.1,0.2,0.2,0.4,0.2,0.7c0,0.3,0.1,0.7,0,1.2v8.6c0,0.5,0,0.9,0,1.2
	c0,0.3-0.1,0.5-0.2,0.7c-0.1,0.2-0.3,0.2-0.6,0.3c-0.3,0-0.6,0.1-1.1,0.1v0.8h5.7v-0.8c-0.4,0-0.7,0-1-0.1c-0.2,0-0.4-0.1-0.5-0.3
	c-0.1-0.2-0.2-0.4-0.2-0.7c0-0.3,0-0.7,0-1.2v-8.5c0.5-0.7,1-1.2,1.5-1.7c0.5-0.5,1-0.9,1.5-1.2c0.5-0.3,1-0.4,1.5-0.4
	c0.8,0,1.4,0.2,1.8,0.5c0.4,0.3,0.8,0.8,0.9,1.4c0.2,0.6,0.3,1.3,0.3,2.2v7.7c0,0.5,0,0.9,0,1.2c0,0.3-0.1,0.5-0.2,0.7
	c-0.1,0.1-0.3,0.2-0.5,0.3c-0.2,0.1-0.6,0.1-1,0.1v0.8h5.4v-0.8c-0.4,0-0.7,0-0.9-0.1c-0.2-0.1-0.4-0.2-0.5-0.3
	c-0.1-0.2-0.2-0.4-0.2-0.7c0-0.3-0.1-0.7,0-1.2v-7.9c0-1-0.1-1.9-0.4-2.5c-0.2-0.7-0.6-1.2-1-1.6c-0.4-0.4-0.9-0.6-1.4-0.8
	c-0.5-0.1-1.1-0.2-1.7-0.2c-0.6,0-1.2,0.1-1.8,0.4c-0.6,0.2-1.2,0.6-1.7,1C150.2,266.2,149.7,266.7,149.2,267.3L149.2,267.3"/>
<path class="st2" d="M174,276.9c-0.3,0.5-0.6,1-1,1.4c-0.4,0.4-0.9,0.8-1.4,1c-0.5,0.3-1.1,0.4-1.8,0.4c-0.4,0-0.8-0.1-1.3-0.2
	c-0.4-0.1-0.9-0.4-1.3-0.7c-0.4-0.3-0.8-0.7-1.1-1.3c-0.3-0.5-0.6-1.2-0.8-2c-0.2-0.8-0.3-1.8-0.3-3c0-1.2,0.1-2.2,0.4-3.1
	c0.2-0.9,0.6-1.6,1-2.2c0.4-0.6,0.9-1,1.5-1.3c0.5-0.3,1.1-0.4,1.7-0.4c0.4,0,0.8,0.1,1.2,0.2c0.3,0.1,0.6,0.3,0.8,0.5
	c0.2,0.2,0.4,0.5,0.5,0.8c0.3,0.5,0.5,0.9,0.6,1.1c0.2,0.2,0.3,0.4,0.4,0.5c0.1,0.1,0.3,0.1,0.4,0.1c0.3,0,0.5-0.1,0.6-0.3
	c0.1-0.2,0.2-0.4,0.2-0.8c0-0.4-0.1-0.8-0.3-1.1c-0.2-0.4-0.6-0.7-1-1c-0.4-0.3-0.9-0.6-1.5-0.7c-0.6-0.2-1.3-0.3-2-0.3
	c-1,0-1.9,0.2-2.7,0.6c-0.8,0.4-1.5,1-2.1,1.7c-0.6,0.7-1,1.6-1.4,2.6s-0.5,2.1-0.5,3.3c0,0.7,0.1,1.5,0.2,2.2
	c0.1,0.8,0.3,1.5,0.6,2.2c0.3,0.7,0.7,1.4,1.2,1.9c0.5,0.6,1.1,1,1.9,1.4c0.7,0.3,1.6,0.5,2.7,0.5c0.8,0,1.6-0.1,2.3-0.4
	c0.7-0.3,1.2-0.6,1.7-1.1c0.5-0.5,1-1.1,1.4-1.8L174,276.9"/>
<path class="st2" d="M179.6,271.1c0.1-0.9,0.2-1.8,0.4-2.5c0.2-0.7,0.5-1.3,0.8-1.8c0.3-0.3,0.6-0.6,0.9-0.8c0.3-0.2,0.6-0.4,1-0.5
	c0.3-0.1,0.7-0.2,1-0.2c0.6,0,1.1,0.1,1.6,0.3c0.4,0.2,0.8,0.5,1.1,0.9c0.3,0.4,0.5,0.8,0.7,1.3c0.2,0.5,0.3,1,0.4,1.5
	c0.1,0.5,0.1,1.1,0.1,1.6H179.6 M188.9,276.6c-0.2,0.4-0.4,0.7-0.7,1.1c-0.3,0.4-0.6,0.7-1,1c-0.4,0.3-0.8,0.5-1.3,0.7
	c-0.5,0.2-1.1,0.3-1.7,0.3c-0.8,0-1.4-0.2-2.1-0.6c-0.6-0.4-1.1-0.9-1.5-1.6c-0.3-0.5-0.5-1-0.7-1.6c-0.2-0.6-0.3-1.1-0.3-1.8
	c-0.1-0.6-0.1-1.3-0.1-2h10c0-0.7-0.1-1.4-0.2-2.1c-0.1-0.7-0.3-1.4-0.6-2.1c-0.3-0.7-0.6-1.3-1.1-1.8c-0.5-0.5-1-1-1.7-1.3
	c-0.7-0.3-1.5-0.5-2.4-0.5c-0.9,0-1.6,0.2-2.3,0.4c-0.7,0.3-1.3,0.7-1.8,1.2c-0.5,0.5-0.9,1.1-1.2,1.8c-0.3,0.7-0.6,1.4-0.7,2.1
	c-0.2,0.8-0.2,1.5-0.2,2.3c0,0.8,0.1,1.7,0.2,2.5c0.1,0.8,0.3,1.6,0.6,2.3c0.3,0.7,0.7,1.4,1.2,1.9c0.5,0.6,1.1,1,1.9,1.3
	c0.8,0.3,1.7,0.5,2.8,0.5c0.6,0,1.3-0.1,1.9-0.3c0.7-0.2,1.3-0.6,1.9-1.2c0.6-0.5,1.2-1.3,1.7-2.2L188.9,276.6z"/>
<path class="st2" d="M206.7,277.7c0,0.4,0,0.8,0,1c0,0.3-0.1,0.4-0.3,0.6c-0.1,0.1-0.4,0.2-0.7,0.2c-0.3,0-0.7,0.1-1.3,0v0.7h6.1
	v-0.7c-0.5,0-0.9,0-1.2,0c-0.3,0-0.5-0.1-0.6-0.2c-0.1-0.1-0.2-0.3-0.3-0.6s-0.1-0.6,0-1v-14.8l-0.3-0.2c-0.3,0.2-0.7,0.5-1,0.7
	c-0.4,0.2-0.8,0.5-1.2,0.7c-0.4,0.2-0.9,0.5-1.5,0.7l0.2,0.7c0.4-0.2,0.6-0.3,0.9-0.4c0.2-0.1,0.5-0.1,0.7-0.1
	c0.2,0,0.4,0.1,0.4,0.3c0.1,0.2,0.1,0.6,0.1,1.1V277.7"/>
<path class="st2" d="M217.7,268.4c0-0.5,0-1,0.1-1.5c0.1-0.5,0.2-0.9,0.4-1.4c0.2-0.4,0.4-0.8,0.8-1.1c0.3-0.3,0.7-0.6,1.1-0.8
	c0.4-0.2,0.9-0.3,1.4-0.3c0.5,0,0.9,0.1,1.3,0.3c0.4,0.2,0.7,0.5,1.1,0.9c0.3,0.4,0.6,0.8,0.8,1.3c0.2,0.5,0.4,1,0.5,1.5
	c0.1,0.5,0.2,1,0.2,1.5c0,0.6-0.1,1.1-0.3,1.6c-0.2,0.5-0.5,0.9-0.8,1.3s-0.8,0.7-1.2,0.9c-0.5,0.2-1,0.3-1.5,0.3
	c-0.6,0-1.1-0.1-1.5-0.3c-0.4-0.2-0.7-0.4-1-0.7c-0.3-0.3-0.5-0.6-0.7-0.9c-0.2-0.3-0.3-0.7-0.4-1c-0.1-0.4-0.1-0.7-0.2-1
	C217.7,268.8,217.7,268.6,217.7,268.4 M225.5,271.5c0,0.3,0,0.7,0,1.1c0,0.4-0.1,0.9-0.1,1.5c-0.1,0.5-0.2,1.1-0.3,1.6
	c-0.1,0.5-0.3,1.1-0.5,1.6c-0.2,0.5-0.5,0.9-0.8,1.3c-0.3,0.4-0.7,0.7-1.1,0.9c-0.4,0.2-0.9,0.4-1.5,0.4c-0.4,0-0.8-0.1-1.2-0.2
	s-0.7-0.3-1-0.6c-0.3-0.3-0.5-0.7-0.7-1.3c-0.1-0.3-0.3-0.5-0.4-0.7c-0.1-0.2-0.2-0.3-0.3-0.4c-0.1-0.1-0.3-0.1-0.4-0.1
	c-0.2,0-0.4,0.1-0.5,0.2c-0.1,0.2-0.2,0.4-0.2,0.7c0,0.3,0.1,0.5,0.2,0.8c0.1,0.3,0.3,0.6,0.5,0.9c0.2,0.3,0.6,0.5,0.9,0.8
	c0.4,0.2,0.8,0.4,1.3,0.6c0.5,0.1,1.1,0.2,1.7,0.2c0.8,0,1.5-0.2,2.1-0.4c0.6-0.3,1.1-0.7,1.6-1.2c0.4-0.5,0.8-1.1,1.1-1.7
	c0.3-0.6,0.5-1.3,0.7-2c0.2-0.7,0.3-1.4,0.4-2.2c0.1-0.7,0.1-1.4,0.1-2.1c0-1.2-0.1-2.3-0.3-3.3c-0.2-0.9-0.5-1.8-0.8-2.4
	c-0.4-0.7-0.8-1.2-1.2-1.6c-0.5-0.4-1-0.7-1.5-0.9c-0.5-0.2-1.1-0.3-1.7-0.3c-0.8,0-1.4,0.1-2,0.3c-0.6,0.2-1.1,0.5-1.6,0.9
	c-0.4,0.4-0.8,0.8-1.1,1.3c-0.3,0.5-0.5,1-0.6,1.6c-0.1,0.6-0.2,1.2-0.2,1.8c0,0.9,0.1,1.6,0.4,2.3c0.3,0.7,0.6,1.3,1.1,1.7
	c0.5,0.5,1,0.8,1.6,1.1c0.6,0.3,1.3,0.4,2,0.4c0.6,0,1.2-0.1,1.7-0.3c0.5-0.2,1-0.5,1.4-0.9C224.7,272.4,225.1,272,225.5,271.5
	L225.5,271.5z"/>
<path class="st2" d="M237.6,265c0,0.5,0,0.9,0,1.4c0,0.4,0,0.8,0,1.2v7h-5.7l4.3-7.2c0.3-0.5,0.6-0.9,0.8-1.3
	C237.2,265.7,237.4,265.3,237.6,265L237.6,265 M237.6,277.7c0,0.4,0,0.8,0,1c0,0.3-0.1,0.4-0.3,0.6c-0.1,0.1-0.4,0.2-0.6,0.3
	c-0.3,0-0.7,0.1-1.2,0.1v0.7h5.6v-0.7c-0.4,0-0.8,0-1-0.1c-0.3,0-0.4-0.1-0.6-0.3c-0.1-0.1-0.2-0.3-0.2-0.6c0-0.3-0.1-0.6,0-1v-2.2
	h1.9l0.1-1h-2.1v-12h-1.1l-7.4,12.2v0.8h6.9V277.7z"/>
<path class="st2" d="M246,266.5c0.1-0.5,0.2-0.9,0.3-1.2c0.1-0.3,0.2-0.5,0.4-0.7c0.2-0.1,0.4-0.2,0.6-0.3c0.2,0,0.6-0.1,1-0.1h6
	c-0.4,0.6-0.9,1.3-1.4,2.1c-0.5,0.8-1,1.8-1.5,2.8c-0.5,1-1,2.2-1.4,3.4c-0.4,1.2-0.8,2.5-1.1,3.9c-0.3,1.4-0.4,2.8-0.5,4.2h1.8
	c0-1.6,0.2-3.1,0.4-4.4c0.2-1.4,0.5-2.6,0.9-3.8c0.4-1.3,0.8-2.5,1.3-3.6c0.5-1.1,1-2.1,1.6-3c0.5-0.9,1.1-1.8,1.7-2.6l-0.2-0.4
	h-9.9l-0.7,3.6H246"/>
<path class="st3" d="M261.2,272.2h62.2v2.6h-62.2V272.2z M61.6,272.2h54.2v2.6H61.6V272.2z"/>
</svg>
