<?xml version="1.0" encoding="utf-8"?>
<!-- Generator: Adobe Illustrator 26.0.3, SVG Export Plug-In . SVG Version: 6.00 Build 0)  -->
<svg version="1.1" id="Layer_1" xmlns="http://www.w3.org/2000/svg" xmlns:xlink="http://www.w3.org/1999/xlink" x="0px" y="0px"
	 viewBox="0 0 45 45" style="enable-background:new 0 0 45 45;" xml:space="preserve">
<style type="text/css">
	.st0{fill:none;stroke:#222221;stroke-width:1.5;stroke-miterlimit:10;}
	.st1{fill-rule:evenodd;clip-rule:evenodd;fill:#222221;}
</style>
<g id="XMLID_2124_">
	<path id="XMLID_2130_" class="st0" d="M22.1,42.7L22.1,42.7c-10.5,0-19-8.5-19-19v0c0-10.5,8.5-19,19-19l0,0c10.5,0,19,8.5,19,19v0
		C41.2,34.1,32.6,42.7,22.1,42.7z"/>
	<g id="XMLID_2125_">
		<path id="XMLID_2127_" class="st1" d="M32.6,23.1c-0.1-5.5-4.7-9.9-10.2-9.9c-5.5,0-10,4.3-10.2,9.7c0,0.1,0,0.3,0,0.4
			c0,1.9,0.5,3.7,1.5,5.3l-1.8,5.5l5.7-1.8c1.5,0.8,3.2,1.3,5,1.3c5.7,0,10.2-4.6,10.2-10.2C32.6,23.3,32.6,23.2,32.6,23.1z
			 M22.3,31.9c-1.8,0-3.4-0.5-4.7-1.4l-3.3,1.1l1.1-3.2c-1-1.4-1.6-3.1-1.6-5c0-0.3,0-0.6,0-0.8c0.4-4.3,4.1-7.7,8.6-7.7
			c4.5,0,8.2,3.5,8.6,7.9c0,0.2,0,0.4,0,0.7C30.9,28.1,27.1,31.9,22.3,31.9z"/>
		<path id="XMLID_2126_" class="st1" d="M27,25.4c-0.3-0.1-1.5-0.7-1.7-0.8c-0.2-0.1-0.4-0.1-0.6,0.1c-0.2,0.2-0.7,0.8-0.8,1
			c-0.1,0.2-0.3,0.2-0.5,0.1c-0.2-0.1-1.1-0.4-2-1.2c-0.7-0.7-1.3-1.5-1.4-1.7c-0.1-0.2,0-0.4,0.1-0.5c0.1-0.1,0.2-0.3,0.4-0.4
			c0,0,0.1-0.1,0.1-0.1c0.1-0.1,0.1-0.2,0.2-0.3c0.1-0.2,0-0.3,0-0.4c-0.1-0.1-0.6-1.4-0.8-1.9c-0.2-0.5-0.4-0.4-0.6-0.4
			c-0.1,0-0.3,0-0.5,0c-0.2,0-0.4,0.1-0.7,0.3c-0.2,0.2-0.9,0.9-0.9,2.1c0,0.3,0.1,0.6,0.1,0.8c0.3,0.9,0.8,1.6,0.9,1.7
			c0.1,0.2,1.7,2.8,4.3,3.8c2.6,1,2.6,0.7,3,0.6c0.5,0,1.5-0.6,1.7-1.2c0.2-0.6,0.2-1.1,0.1-1.2C27.4,25.6,27.3,25.5,27,25.4z"/>
	</g>
</g>
</svg>
