<?xml version="1.0" encoding="utf-8"?>
<!-- Generator: Adobe Illustrator 26.0.3, SVG Export Plug-In . SVG Version: 6.00 Build 0)  -->
<svg version="1.1" id="Layer_1" xmlns="http://www.w3.org/2000/svg" xmlns:xlink="http://www.w3.org/1999/xlink" x="0px" y="0px"
	 viewBox="0 0 45 45" style="enable-background:new 0 0 45 45;" xml:space="preserve">
<style type="text/css">
	.st0{fill:none;stroke:#222221;stroke-width:1.5;stroke-miterlimit:10;}
	.st1{fill:#222221;}
	.st2{fill:#FFFFFF;}
</style>
<g id="XMLID_2116_">
	<path id="XMLID_2123_" class="st0" d="M22.1,43.1L22.1,43.1c-10.5,0-19-8.5-19-19v0c0-10.5,8.5-19,19-19l0,0c10.5,0,19,8.5,19,19v0
		C41.1,34.6,32.6,43.1,22.1,43.1z"/>
	<g id="XMLID_2117_">
		<path id="XMLID_2121_" class="st1" d="M36.7,16.7c-0.4-1.3-1.4-2.4-2.7-2.7c-2.4-0.6-11.9-0.6-11.9-0.6s-9.5,0-11.9,0.6
			c-1.3,0.4-2.3,1.4-2.7,2.7c-0.6,2.4-0.6,7.4-0.6,7.4s0,5,0.6,7.4c0.4,1.3,1.4,2.4,2.7,2.7c2.4,0.6,11.9,0.6,11.9,0.6
			s9.5,0,11.9-0.6c1.3-0.4,2.3-1.4,2.7-2.7c0.6-2.4,0.6-7.4,0.6-7.4S37.3,19.1,36.7,16.7z"/>
		<polygon id="XMLID_2118_" class="st2" points="19,28.6 19,19.6 27,24.1 		"/>
	</g>
</g>
</svg>
