<?xml version="1.0" encoding="utf-8"?>
<!-- Generator: Adobe Illustrator 26.0.3, SVG Export Plug-In . SVG Version: 6.00 Build 0)  -->
<svg version="1.1" id="Layer_1" xmlns="http://www.w3.org/2000/svg" xmlns:xlink="http://www.w3.org/1999/xlink" x="0px" y="0px"
	 viewBox="0 0 45 45" style="enable-background:new 0 0 45 45;" xml:space="preserve">
<style type="text/css">
	.st0{fill:none;stroke:#222221;stroke-width:1.5;stroke-miterlimit:10;}
	.st1{fill:#222221;}
</style>
<g id="XMLID_2080_">
	<path id="XMLID_2082_" class="st0" d="M22.1,42.6L22.1,42.6c-10.5,0-19-8.5-19-19v0c0-10.5,8.5-19,19-19h0c10.5,0,19,8.5,19,19v0
		C41.1,34,32.6,42.6,22.1,42.6z"/>
	<path id="XMLID_2081_" class="st1" d="M19.2,35h4.6V23.4H27l0.3-3.9h-3.6c0,0,0-1.5,0-2.2c0-0.9,0.2-1.3,1.1-1.3c0.7,0,2.5,0,2.5,0
		v-4c0,0-2.6,0-3.2,0c-3.4,0-5,1.5-5,4.4c0,2.5,0,3.1,0,3.1h-2.4v3.9h2.4V35z"/>
</g>
</svg>
