<?xml version="1.0" encoding="utf-8"?>
<!-- Generator: Adobe Illustrator 26.0.3, SVG Export Plug-In . SVG Version: 6.00 Build 0)  -->
<svg version="1.1" id="Capa_1" xmlns="http://www.w3.org/2000/svg" xmlns:xlink="http://www.w3.org/1999/xlink" x="0px" y="0px"
	 viewBox="0 0 512 512" style="enable-background:new 0 0 512 512;" xml:space="preserve">
<g>
	<g>
		<path d="M6.2,505.8c4.2,4.2,9.6,6.3,15.1,6.3s10.9-2.1,15.1-6.3L182,360.2c34.8,28.2,79.1,45.2,127.3,45.2
			c111.8,0,202.7-90.9,202.7-202.7S421,0,309.3,0S106.7,90.9,106.7,202.7c0,48.2,17,92.5,45.2,127.3L6.3,475.6
			C-2.1,483.9-2.1,497.4,6.2,505.8z M149.3,202.7c0-88.2,71.8-160,160-160s160,71.8,160,160s-71.8,160-160,160
			S149.3,290.9,149.3,202.7z"/>
	</g>
</g>
</svg>
